<svg preserveAspectRatio="none" width="100%" height="100%" overflow="visible" style="display: block;" viewBox="0 0 27.3224 27.3224" fill="none" xmlns="http://www.w3.org/2000/svg">
<path id="Vector" d="M27.3224 2.009V25.3134C27.3224 25.8462 27.1107 26.3572 26.734 26.734C26.3572 27.1107 25.8462 27.3224 25.3134 27.3224H2.009C1.47618 27.3224 0.965183 27.1107 0.588423 26.734C0.211662 26.3572 0 25.8462 0 25.3134L0 2.009C0 1.47618 0.211662 0.965183 0.588423 0.588423C0.965183 0.211662 1.47618 0 2.009 0L25.3134 0C25.8462 0 26.3572 0.211662 26.734 0.588423C27.1107 0.965183 27.3224 1.47618 27.3224 2.009V2.009ZM8.036 10.4468H4.018V23.3044H8.036V10.4468ZM8.39762 6.027C8.39974 5.72307 8.34197 5.4217 8.22762 5.1401C8.11326 4.8585 7.94456 4.60218 7.73114 4.38577C7.51772 4.16937 7.26377 3.99712 6.98378 3.87887C6.70379 3.76061 6.40325 3.69866 6.09933 3.69656H6.027C5.40893 3.69656 4.81617 3.94209 4.37913 4.37913C3.94209 4.81617 3.69656 5.40893 3.69656 6.027C3.69656 6.64507 3.94209 7.23783 4.37913 7.67487C4.81617 8.11191 5.40893 8.35744 6.027 8.35744V8.35744C6.33095 8.36492 6.6334 8.31243 6.91706 8.20298C7.20071 8.09353 7.46003 7.92926 7.68018 7.71956C7.90033 7.50986 8.077 7.25883 8.2001 6.98082C8.32321 6.70282 8.39032 6.40328 8.39762 6.09933V6.027ZM23.3044 15.4934C23.3044 11.6281 20.8454 10.1254 18.4024 10.1254C17.6026 10.0853 16.8062 10.2557 16.0927 10.6195C15.3792 10.9833 14.7736 11.5278 14.3362 12.1987H14.2237V10.4468H10.4468V23.3044H14.4648V16.4658C14.4067 15.7654 14.6273 15.0704 15.0787 14.5317C15.5301 13.993 16.1759 13.6542 16.8756 13.5889H17.0283C18.306 13.5889 19.2543 14.3925 19.2543 16.4176V23.3044H23.2723L23.3044 15.4934Z" fill="var(--fill-0, #595959)"/>
</svg>
