<svg preserveAspectRatio="none" width="100%" height="100%" overflow="visible" style="display: block;" viewBox="0 0 27.3224 17.0763" fill="none" xmlns="http://www.w3.org/2000/svg">
<path id="Vector" d="M25.0453 2.27684H17.0763V0H25.0453V2.27684ZM27.0102 13.6611C26.507 15.1376 24.7003 17.0763 21.2031 17.0763C17.7036 17.0763 14.8689 15.108 14.8689 10.6158C14.8689 6.16455 17.5158 3.87632 21.0915 3.87632C24.6001 3.87632 26.7427 5.90499 27.2105 8.91498C27.2993 9.49102 27.3346 10.2674 27.3187 11.3512H18.1806C18.3286 15.0067 22.1457 15.1217 23.4037 13.6611H27.0102ZM18.2603 9.10737H23.9125C23.793 7.34623 22.6193 6.58121 21.0927 6.58121C19.4237 6.58121 18.5005 7.45552 18.2603 9.10737ZM7.36103 17.0627H0V0.0239067H7.91544C14.1494 0.116119 14.2678 6.22147 11.0119 7.88584C14.952 9.32026 15.0841 17.0627 7.36103 17.0627V17.0627ZM3.41526 6.83053H7.49537C10.3505 6.83053 10.8036 3.41526 7.14018 3.41526H3.41526V6.83053V6.83053ZM7.27565 10.2458H3.41526V13.6793H7.21873C10.6966 13.6793 10.4837 10.2458 7.27565 10.2458V10.2458Z" fill="var(--fill-0, #555555)"/>
</svg>
