<svg preserveAspectRatio="none" width="100%" height="100%" overflow="visible" style="display: block;" viewBox="0 0 32.7869 32.7869" fill="none" xmlns="http://www.w3.org/2000/svg">
<g id="Instagram Fill">
<g id="Vector">
<path fill-rule="evenodd" clip-rule="evenodd" d="M16.3934 2.73224C12.6831 2.73224 12.2186 2.74772 10.7614 2.81421C9.30692 2.88069 8.3133 3.11202 7.44444 3.44991C6.5337 3.79235 5.70765 4.32969 5.02459 5.0255C4.32989 5.70777 3.79222 6.53324 3.449 7.44444C3.11293 8.3133 2.88069 9.30783 2.81421 10.7623C2.74863 12.2186 2.73224 12.6822 2.73224 16.3934C2.73224 20.1047 2.74772 20.5683 2.81421 22.0255C2.88069 23.48 3.11202 24.4736 3.44991 25.3424C3.79235 26.2532 4.32969 27.0792 5.0255 27.7623C5.70779 28.457 6.53325 28.9946 7.44444 29.3379C8.3133 29.6749 9.30692 29.9062 10.7614 29.9727C12.2186 30.0392 12.6831 30.0546 16.3934 30.0546C20.1038 30.0546 20.5683 30.0392 22.0255 29.9727C23.48 29.9062 24.4736 29.6749 25.3424 29.337C26.2532 28.9945 27.0792 28.4572 27.7623 27.7614C28.457 27.0791 28.9947 26.2537 29.3379 25.3424C29.6749 24.4736 29.9062 23.48 29.9727 22.0255C30.0392 20.5683 30.0546 20.1038 30.0546 16.3934C30.0546 12.6831 30.0392 12.2186 29.9727 10.7614C29.9062 9.30692 29.6749 8.3133 29.337 7.44444C28.994 6.53285 28.4563 5.70703 27.7614 5.02459C27.0791 4.32989 26.2537 3.79222 25.3424 3.449C24.4736 3.11293 23.4791 2.88069 22.0246 2.81421C20.5683 2.74863 20.1047 2.73224 16.3934 2.73224ZM16.3934 5.19399C20.041 5.19399 20.4736 5.20765 21.9144 5.27322C23.2459 5.33424 23.969 5.55556 24.4508 5.74408C25.0883 5.99089 25.5437 6.2878 26.0219 6.76503C26.5 7.24317 26.796 7.69854 27.0428 8.33607C27.2304 8.81785 27.4526 9.54098 27.5137 10.8725C27.5792 12.3133 27.5929 12.7459 27.5929 16.3934C27.5929 20.041 27.5792 20.4736 27.5137 21.9144C27.4526 23.2459 27.2313 23.969 27.0428 24.4508C26.8242 25.0442 26.4753 25.5811 26.0219 26.0219C25.5811 26.4754 25.0443 26.8243 24.4508 27.0428C23.969 27.2304 23.2459 27.4526 21.9144 27.5137C20.4736 27.5792 20.0419 27.5929 16.3934 27.5929C12.745 27.5929 12.3133 27.5792 10.8725 27.5137C9.54098 27.4526 8.81785 27.2313 8.33607 27.0428C7.74267 26.8242 7.20584 26.4753 6.76503 26.0219C6.31164 25.581 5.96278 25.0442 5.74408 24.4508C5.55647 23.969 5.33424 23.2459 5.27322 21.9144C5.20765 20.4736 5.19399 20.041 5.19399 16.3934C5.19399 12.7459 5.20765 12.3133 5.27322 10.8725C5.33424 9.54098 5.55556 8.81785 5.74408 8.33607C5.99089 7.69854 6.2878 7.24317 6.76503 6.76503C7.20578 6.31152 7.74263 5.96264 8.33607 5.74408C8.81785 5.55647 9.54098 5.33424 10.8725 5.27322C12.3133 5.20765 12.7459 5.19399 16.3934 5.19399Z" fill="#595959"/>
<path fill-rule="evenodd" clip-rule="evenodd" d="M16.3935 20.9517C15.7949 20.9517 15.2021 20.8338 14.6491 20.6048C14.096 20.3757 13.5935 20.0399 13.1703 19.6166C12.747 19.1934 12.4112 18.6909 12.1822 18.1378C11.9531 17.5848 11.8352 16.992 11.8352 16.3934C11.8352 15.7948 11.9531 15.2021 12.1822 14.6491C12.4112 14.096 12.747 13.5935 13.1703 13.1702C13.5935 12.747 14.096 12.4112 14.6491 12.1821C15.2021 11.9531 15.7949 11.8352 16.3935 11.8352C17.6024 11.8352 18.7618 12.3154 19.6167 13.1702C20.4715 14.0251 20.9518 15.1845 20.9518 16.3934C20.9518 17.6024 20.4715 18.7618 19.6167 19.6166C18.7618 20.4715 17.6024 20.9517 16.3935 20.9517ZM16.3935 9.37159C14.5312 9.37159 12.7451 10.1114 11.4283 11.4282C10.1114 12.7451 9.37161 14.5311 9.37161 16.3934C9.37161 18.2558 10.1114 20.0418 11.4283 21.3586C12.7451 22.6755 14.5312 23.4153 16.3935 23.4153C18.2558 23.4153 20.0418 22.6755 21.3587 21.3586C22.6755 20.0418 23.4153 18.2558 23.4153 16.3934C23.4153 14.5311 22.6755 12.7451 21.3587 11.4282C20.0418 10.1114 18.2558 9.37159 16.3935 9.37159ZM25.4581 9.24408C25.4581 9.6843 25.2833 10.1065 24.972 10.4178C24.6607 10.729 24.2385 10.9039 23.7983 10.9039C23.3581 10.9039 22.9359 10.729 22.6246 10.4178C22.3133 10.1065 22.1385 9.6843 22.1385 9.24408C22.1385 8.80386 22.3133 8.38168 22.6246 8.0704C22.9359 7.75912 23.3581 7.58424 23.7983 7.58424C24.2385 7.58424 24.6607 7.75912 24.972 8.0704C25.2833 8.38168 25.4581 8.80386 25.4581 9.24408Z" fill="#595959"/>
</g>
</g>
</svg>
